<?xml version="1.0" encoding="utf-8"?>
<!-- Generator: Adobe Illustrator 21.0.2, SVG Export Plug-In . SVG Version: 6.00 Build 0)  -->
<svg version="1.1" id="Layer_1" xmlns="http://www.w3.org/2000/svg" xmlns:xlink="http://www.w3.org/1999/xlink" x="0px" y="0px"
	 viewBox="0 0 80.3 80.6" style="enable-background:new 0 0 80.3 80.6;" xml:space="preserve">
<style type="text/css">
	.st0{fill:#8C8C8C;stroke:#8C8C8C;stroke-width:6.0804;stroke-miterlimit:10;}
	.st1{fill:#FFFFFF;stroke:#000000;stroke-width:6;stroke-miterlimit:10;}
	.st2{fill:none;}
</style>
<g>
	<g>
		<path class="st0" d="M40.3,14.7c2.6-3,17.5-5.4,36.9-3.5v47c-19.4-1.9-34.3,0.6-36.9,3.5c-2.6-3-17.5-5.4-36.9-3.5v-47
			C22.8,9.3,37.7,11.8,40.3,14.7z"/>
	</g>
	<g>
		<g>
			<path class="st1" d="M40.3,11.7C43,5.9,54.3,1.2,74,5.3v46.3c-19.7-4.1-31,0.6-33.7,6.4c-2.7-5.8-14-10.5-33.7-6.4V5.3
				C26.3,1.2,37.7,5.9,40.3,11.7z"/>
		</g>
		<line class="st1" x1="40.3" y1="11.7" x2="40.3" y2="58"/>
	</g>
	<rect class="st2" width="80.6" height="80.6"/>
</g>
</svg>
